<svg width="32" height="32" viewBox="0 0 32 32" fill="none" xmlns="http://www.w3.org/2000/svg">
<path d="M14.6681 13.3334H17.3347V20H14.6681V13.3334ZM14.6667 21.3334H17.3334V24H14.6667V21.3334Z" fill="#EE825B"/>
<path d="M18.3573 5.59996C17.8933 4.72663 16.9893 4.18396 16 4.18396C15.0107 4.18396 14.1067 4.72663 13.6427 5.60129L3.85868 24.0853C3.64157 24.4912 3.53402 24.9467 3.54665 25.4068C3.55928 25.867 3.69164 26.3159 3.93068 26.7093C4.16628 27.1045 4.50087 27.4314 4.90141 27.6577C5.30196 27.8841 5.75461 28.002 6.21468 28H25.7853C26.7293 28 27.584 27.5173 28.0707 26.7093C28.3093 26.3158 28.4415 25.8669 28.4541 25.4068C28.4667 24.9468 28.3594 24.4913 28.1427 24.0853L18.3573 5.59996ZM6.21468 25.3333L16 6.84929L25.792 25.3333H6.21468Z" fill="#EE825B"/>
</svg>
