<svg width="512" height="444" viewBox="0 0 512 444" fill="none" xmlns="http://www.w3.org/2000/svg">
<path d="M494.426 71.5729C483.094 60.2429 468.03 54.0039 452.01 54.0039H451.999L258.297 53.9999C258.283 53.9999 258.271 53.9999 258.257 53.9999C252.847 53.9999 247.882 51.3949 244.969 47.0269L214.259 0.962891H60C26.916 0.962891 0 27.8789 0 60.9629V383.037C0 416.121 26.916 443.037 60 443.037H452C485.084 443.037 512 416.121 512 383.037V114C512 97.9729 505.759 82.9049 494.426 71.5729ZM40 60.9629C40 49.9349 48.972 40.9629 60 40.9629H192.853L211.688 69.2159C212.834 70.9349 214.067 72.5769 215.377 74.1379C214.094 75.6629 212.888 77.2649 211.769 78.9319L192.478 107.001L60.011 107.007H59.999C53.08 107.007 46.338 108.171 40 110.405V60.9629ZM472 383.037C472 394.065 463.028 403.037 452 403.037H60C48.972 403.037 40 394.065 40 383.037V171V167.007C40 161.664 42.081 156.642 45.859 152.863C49.636 149.087 54.658 147.007 60.004 147.007H60.008L213.523 146.999L244.808 101.48L244.966 101.247C247.811 96.9799 253.171 93.9999 258 93.9999C258.115 93.9999 258.231 93.9989 258.346 93.9999L452.003 94.0039C457.344 94.0029 462.365 96.0819 466.143 99.8589C469.92 103.636 472 108.658 472 114V383.037Z" fill="#2d76b9ea"/>
</svg>
