<svg width="512" height="466" viewBox="0 0 512 466" fill="none" xmlns="http://www.w3.org/2000/svg">
<path d="M491.422 115.859C478.414 89.25 459.293 66.708 434.591 48.86C390.803 17.223 329.047 0.5 256 0.5C182.953 0.5 121.197 17.222 77.409 48.86C52.707 66.708 33.586 89.25 20.578 115.859C6.924 143.791 0 176.305 0 212.5C0 290.784 32.285 350.672 93.615 386.695C85.131 416.626 74.123 434.765 74.024 434.927L55.041 465.447L90.996 465.5H91.1C91.203 465.5 91.308 465.5 91.419 465.5C102.766 465.5 154.825 463.052 197.154 420.591C215.814 423.187 235.558 424.5 256 424.5C329.047 424.5 390.803 407.777 434.591 376.14C459.293 358.291 478.414 335.75 491.422 309.141C505.076 281.209 512 248.695 512 212.5C512 176.305 505.076 143.79 491.422 115.859ZM411.164 343.717C374.237 370.397 320.583 384.5 256 384.5C233.809 384.5 212.635 382.815 193.065 379.491L181.929 377.6L174.56 386.16C158.726 404.55 140.446 414.37 124.928 419.599C128.958 408.727 133.039 395.68 136.332 380.813L139.727 365.492L125.654 358.551C68.818 330.516 40 281.377 40 212.5C40 154.597 60.468 110.449 100.836 81.283C137.762 54.603 191.417 40.5 256 40.5C320.583 40.5 374.238 54.602 411.164 81.283C451.532 110.449 472 154.598 472 212.5C472 270.402 451.532 314.55 411.164 343.717Z" fill="black"/>
</svg>
