<svg width="15" height="19" viewBox="0 0 15 19" fill="none" xmlns="http://www.w3.org/2000/svg">
<path fill-rule="evenodd" clip-rule="evenodd" d="M2.72471 1.3126C0.11977 3.13917 -0.513555 6.74458 1.31288 9.34957C2.44419 10.9631 4.25798 11.8198 6.0938 11.8044C7.21005 11.7732 7.89151 11.6064 8.79688 11.0959C8.97122 10.9977 9.15386 10.8866 9.34951 10.7614C9.56088 10.6132 9.75926 10.4532 9.9444 10.2831C12.041 8.35631 12.4396 5.11802 10.7613 2.72437C8.93487 0.119348 5.32965 -0.513971 2.72471 1.3126ZM2.58972 8.4543C3.92254 10.3553 6.55337 10.8174 8.45427 9.48451C10.3552 8.15161 10.8174 5.52069 9.48453 3.6197C8.15169 1.71871 5.52086 1.25656 3.61995 2.58946C1.71905 3.92236 1.2569 6.55334 2.58972 8.4543Z" fill="#5f83d1"/>
<path d="M9.34951 10.7614C9.15386 10.8866 8.97122 10.9977 8.79688 11.0959L13.6784 18.0584L14.8298 17.2511L9.9444 10.2831C9.75926 10.4532 9.56088 10.6132 9.34951 10.7614Z" fill="#5f83d1"/>
</svg>
