<svg width="31" height="28" viewBox="0 0 31 28" fill="none" xmlns="http://www.w3.org/2000/svg">
<g clip-path="url(#clip0)">
<path d="M14.629 10.2634C14.8815 9.88933 15.1578 9.84182 15.382 9.84182C15.6063 9.84182 15.9798 9.88933 16.2323 10.2634C18.2223 13.0109 21.5073 18.4839 23.9303 22.5211C25.5106 25.1538 26.7242 27.176 26.9733 27.4333C27.908 28.3994 29.19 27.7973 29.9349 26.7016C30.6682 25.6228 30.8719 24.8652 30.8719 24.0571C30.8719 23.5068 20.247 3.64497 19.1769 1.99176C18.148 0.401697 17.8128 0 16.0516 0H14.7336C12.9777 0 12.7239 0.401697 11.6949 1.99176C10.625 3.64509 0 23.5067 0 24.0572C0 24.8652 0.203561 25.6228 0.937007 26.7016C1.68191 27.7973 2.96393 28.3994 3.89865 27.4333C4.14767 27.176 5.36144 25.1538 6.94157 22.5211C9.36465 18.4839 12.639 13.0108 14.629 10.2634Z" fill="#000020"/>
</g>
<defs>
<clipPath id="clip0">
<rect width="30.8718" height="28" fill="white"/>
</clipPath>
</defs>
</svg>
